HIERARCHY
ROOT Hips
{
 OFFSET 0.000000 0.000000 0.000000
 CHANNELS 6 Xposition Yposition Zposition Yrotation Xrotation Zrotation
 JOINT Chest
 {
  OFFSET 0.000000 9.857222 0.000240
  CHANNELS 3 Yrotation Xrotation Zrotation
  JOINT Chest2
  {
   OFFSET 0.000000 10.876940 -0.000436
   CHANNELS 3 Yrotation Xrotation Zrotation
   JOINT Chest3
   {
    OFFSET 0.000000 9.827798 0.000000
    CHANNELS 3 Yrotation Xrotation Zrotation
    JOINT Chest4
    {
     OFFSET 0.000000 9.827798 0.000000
     CHANNELS 3 Yrotation Xrotation Zrotation
     JOINT Neck
     {
      OFFSET 0.000000 13.831992 0.000000
      CHANNELS 3 Yrotation Xrotation Zrotation
      JOINT Head
      {
       OFFSET 0.000000 9.147643 -0.001036
       CHANNELS 3 Yrotation Xrotation Zrotation
       End Site
       {
        OFFSET 0.000000 17.515799 -0.000541
       }
      }
     }
     JOINT RightCollar
     {
      OFFSET -3.001579 7.717577 0.000000
      CHANNELS 3 Yrotation Xrotation Zrotation
      JOINT RightShoulder
      {
       OFFSET -14.002642 0.000000 0.000000
       CHANNELS 3 Yrotation Xrotation Zrotation
       JOINT RightElbow
       {
        OFFSET -30.053852 0.000000 0.000000
        CHANNELS 3 Yrotation Xrotation Zrotation
        JOINT RightWrist
        {
         OFFSET -24.564923 0.000000 -0.000000
         CHANNELS 3 Yrotation Xrotation Zrotation
         End Site
         {
          OFFSET -18.334355 0.000000 0.000000
         }
        }
       }
      }
     }
     JOINT LeftCollar
     {
      OFFSET 3.001579 7.717577 0.000000
      CHANNELS 3 Yrotation Xrotation Zrotation
      JOINT LeftShoulder
      {
       OFFSET 14.002642 0.000000 0.000000
       CHANNELS 3 Yrotation Xrotation Zrotation
       JOINT LeftElbow
       {
        OFFSET 30.053852 0.000000 0.000000
        CHANNELS 3 Yrotation Xrotation Zrotation
        JOINT LeftWrist
        {
         OFFSET 24.564923 0.000000 -0.000000
         CHANNELS 3 Yrotation Xrotation Zrotation
         End Site
         {
          OFFSET 18.334355 0.000000 0.000000
         }
        }
       }
      }
     }
    }
   }
  }
 }
 JOINT RightHip
 {
  OFFSET -8.003235 -0.001175 -0.000120
  CHANNELS 3 Yrotation Xrotation Zrotation
  JOINT RightKnee
  {
   OFFSET 0.000000 -41.759727 0.000113
   CHANNELS 3 Yrotation Xrotation Zrotation
   JOINT RightAnkle
   {
    OFFSET 0.000000 -40.728748 0.000159
    CHANNELS 3 Yrotation Xrotation Zrotation
    JOINT RightToe
    {
     OFFSET 0.000000 -6.515296 14.732841
     CHANNELS 3 Yrotation Xrotation Zrotation
     End Site
     {
      OFFSET 0.000000 -1.502839 6.412115
     }
    }
   }
  }
 }
 JOINT LeftHip
 {
  OFFSET 8.003235 -0.001175 -0.000120
  CHANNELS 3 Yrotation Xrotation Zrotation
  JOINT LeftKnee
  {
   OFFSET 0.000000 -41.759727 0.000113
   CHANNELS 3 Yrotation Xrotation Zrotation
   JOINT LeftAnkle
   {
    OFFSET 0.000000 -40.728748 0.000159
    CHANNELS 3 Yrotation Xrotation Zrotation
    JOINT LeftToe
    {
     OFFSET 0.000000 -6.515296 14.732841
     CHANNELS 3 Yrotation Xrotation Zrotation
     End Site
     {
      OFFSET 0.000000 -1.502839 6.412115
     }
    }
   }
  }
 }
}
MOTION
Frames: 15
Frame Time: 0.016667
0.000000 88.822259 0.000000 0.000000 -5.826342 0.000000 0.000000 11.116423 0.000000 0.000000 -5.290081 0.000000 0.000000 0.000000 0.000000 0.000000 0.000000 0.000000 0.000000 12.665069 0.000000 0.000000 0.575450 0.000000 0.000000 0.000000 0.000000 0.000000 0.000000 0.000000 2.337306 0.000000 0.000000 -2.337306 0.000000 0.000000 0.000000 0.000000 0.000000 0.000000 0.000000 0.000000 -2.337306 0.000000 0.000000 2.337306 0.000000 0.000000 0.000000 8.578828 0.000000 0.000000 1.905768 0.000000 0.000000 -4.658254 0.000000 0.000000 0.000000 0.000000 0.000000 8.578828 0.000000 0.000000 1.905768 0.000000 0.000000 -4.658254 0.000000 0.000000 0.000000 0.000000
19.720270 89.781555 12.699829 -24.171742 2.954538 -3.993349 -2.395303 6.504062 -0.451884 -1.014363 2.831540 -0.124166 -1.014363 2.831540 -0.124166 -0.760042 2.123868 -0.088403 2.056946 36.690622 1.579217 3.511157 31.935580 2.620616 5.265843 8.747356 9.768279 64.663564 30.727202 85.577022 44.728128 69.779341 -13.746770 -3.021433 24.782996 -57.848196 -19.516822 10.121854 -12.268702 -7.622414 34.390568 -41.485372 -100.803978 38.058845 -13.787796 -9.481643 14.973648 47.681788 -20.267454 -13.488047 3.747703 -1.791577 15.880414 -8.296871 -5.448405 -8.130273 8.900017 -0.177133 0.540806 0.194212 -7.222839 -7.386682 13.284651 7.610861 17.303749 -2.069578 -17.021385 -11.226371 -4.323761 0.042022 0.178927 -0.022622
19.797591 89.809031 12.818975 -24.312002 3.030535 -4.015577 -2.345171 6.429856 -0.428000 -1.029208 2.839629 -0.139625 -1.029208 2.839629 -0.139625 -0.771099 2.129964 -0.099912 2.071861 36.695046 1.512317 3.543731 31.944800 2.500706 5.238472 8.713207 9.769856 64.539416 30.691900 85.552375 44.981291 69.703795 -13.533531 -3.032286 24.785964 -57.803955 -19.461104 10.122279 -12.273760 -7.610495 34.390746 -41.378661 -100.825189 38.039350 -13.759421 -9.503504 14.969175 47.647980 -20.739985 -13.462680 3.995213 -0.913174 15.702256 -8.365712 -5.371236 -8.306873 9.243333 -0.108729 0.678541 -0.092056 -7.077058 -7.314746 13.193369 7.566522 17.087753 -2.075797 -16.919784 -11.103676 -4.264563 0.059628 0.139015 -0.014800
19.773890 89.825681 12.908989 -24.396604 3.087556 -3.990186 -2.301496 6.372478 -0.417214 -1.047663 2.841462 -0.146737 -1.047663 2.841462 -0.146737 -0.784903 2.131355 -0.105156 2.068168 36.686496 1.448771 3.542612 31.930005 2.387959 5.207423 8.662112 9.757877 64.315928 30.650697 85.445059 45.318372 69.693967 -13.239104 -3.000650 24.813918 -57.734860 -19.405289 10.106111 -12.281835 -7.575505 34.403227 -41.280179 -100.860613 37.966775 -13.758834 -9.501284 14.964760 47.631628 -20.583360 -13.381654 3.884713 -0.958883 15.307885 -8.196457 -5.134506 -8.511404 9.630605 -0.148969 0.882506 -0.490785 -7.031628 -7.183169 13.160769 7.496015 16.850857 -2.121319 -16.795687 -11.055655 -4.305813 0.136483 0.145192 0.019732
19.680938 89.827404 12.969422 -24.424816 3.147351 -3.926538 -2.275625 6.295688 -0.416211 -1.067128 2.844750 -0.147151 -1.067128 2.844750 -0.147151 -0.799496 2.133827 -0.105370 2.052028 36.666656 1.394640 3.518277 31.894149 2.292651 5.186323 8.577192 9.736644 64.066633 30.604678 85.331285 45.594166 69.731052 -13.000696 -2.933657 24.850893 -57.657372 -19.349347 10.062944 -12.283606 -7.541387 34.423897 -41.246494 -100.886758 37.873604 -13.774051 -9.485939 14.963026 47.621106 -20.166518 -13.222945 3.770489 -1.577238 14.629976 -8.085536 -4.874692 -8.574322 9.934011 -0.123611 1.061114 -0.815648 -6.942174 -7.131563 13.155495 7.444196 16.731358 -2.172563 -16.912998 -11.012427 -4.297781 0.133571 0.098147 0.019398
19.517855 89.817979 13.021964 -24.376704 3.106506 -3.843967 -2.282121 6.276850 -0.416564 -1.084205 2.856366 -0.141880 -1.084205 2.856366 -0.141880 -0.812321 2.142535 -0.101318 2.026230 36.641238 1.354841 3.475399 31.847714 2.223476 5.171192 8.477230 9.710037 63.857369 30.553973 85.264881 45.706676 69.805841 -12.914419 -2.844121 24.891481 -57.590173 -19.304382 10.019514 -12.292140 -7.533825 34.449945 -41.292976 -100.849859 37.804505 -13.748919 -9.463512 14.958074 47.604713 -20.458528 -12.811622 3.652766 -1.968507 13.670911 -7.807155 -4.530305 -8.397467 10.066755 -0.111319 1.134801 -1.050978 -6.843191 -7.001427 13.110774 7.446578 16.646372 -2.133913 -16.997615 -11.003522 -4.354011 0.113507 0.060030 0.012276
19.323328 89.798562 13.075857 -24.298538 3.061965 -3.753184 -2.284492 6.256263 -0.405918 -1.094785 2.862704 -0.134367 -1.094785 2.862704 -0.134367 -0.820288 2.147277 -0.095623 1.991390 36.613955 1.334207 3.414727 31.797507 2.189087 5.162522 8.351537 9.692431 63.696738 30.521226 85.248508 45.729416 69.900598 -12.900224 -2.741856 24.926464 -57.535397 -19.273418 9.978736 -12.296270 -7.546237 34.488551 -41.407673 -100.770726 37.785095 -13.676803 -9.436636 14.956039 47.588440 -21.142647 -12.341838 3.377397 -2.287919 12.642563 -7.232781 -3.826030 -7.829487 10.031235 -0.149965 0.895567 -1.215305 -6.754091 -6.869175 13.090761 7.405785 16.579254 -2.111015 -17.068080 -11.024520 -4.421642 0.081617 0.032979 -0.001307
19.055065 89.766792 13.126951 -24.095719 2.909285 -3.719947 -2.360016 6.337888 -0.314777 -1.103284 2.869290 -0.124646 -1.103284 2.869290 -0.124646 -0.826704 2.152201 -0.088282 1.946148 36.588558 1.320424 3.335039 31.750707 2.167887 5.173531 8.237467 9.679330 63.604446 30.508919 85.262643 45.654893 69.974913 -12.977537 -2.638259 24.962524 -57.489240 -19.242800 9.919113 -12.309194 -7.539675 34.542513 -41.519371 -100.685738 37.779099 -13.599402 -9.414525 14.957512 47.577040 -21.838501 -11.719989 3.181053 -2.820329 11.746782 -6.733776 -3.300117 -7.265065 9.459630 -0.064368 0.620054 -0.893033 -6.750487 -6.632481 13.160065 7.217522 16.549575 -2.150524 -16.847549 -11.069811 -4.538881 0.056851 0.018599 -0.007334
18.772243 89.728109 13.170083 -23.842058 2.684660 -3.618627 -2.473177 6.489958 -0.279745 -1.103145 2.890480 -0.111738 -1.103145 2.890480 -0.111738 -0.826654 2.168070 -0.078565 1.889529 36.554346 1.307159 3.234918 31.687568 2.148402 5.209834 8.115134 9.678188 63.556748 30.515326 85.277047 45.524783 70.030318 -13.102590 -2.545573 24.993291 -57.474996 -19.186867 9.773178 -12.308219 -7.498179 34.606235 -41.587028 -100.636317 37.751536 -13.566739 -9.409978 14.962964 47.561102 -22.581587 -11.041628 2.982601 -2.817923 11.192406 -6.388295 -3.251968 -7.062328 9.019577 -0.028371 0.442925 -0.585326 -6.903592 -6.312637 13.236410 7.008360 16.531608 -2.280742 -16.646990 -11.082953 -4.642462 0.034679 -0.032866 -0.013114
18.517999 89.694286 13.206451 -23.628885 2.451509 -3.457338 -2.548130 6.628057 -0.297288 -1.099756 2.925261 -0.088605 -1.099756 2.925261 -0.088605 -0.824213 2.194114 -0.061171 1.818694 36.520624 1.278571 3.111006 31.625619 2.103099 5.284357 7.969892 9.680779 63.563132 30.582544 85.306955 45.429546 70.061563 -13.200600 -2.478148 25.028428 -57.519701 -19.095848 9.592344 -12.338253 -7.420563 34.622988 -41.620209 -100.615736 37.743210 -13.607841 -9.430740 14.970337 47.541023 -23.281383 -10.429338 2.773532 -2.048488 10.958383 -6.232064 -3.558394 -7.063464 8.888773 -0.071909 0.254902 -0.384142 -7.160470 -6.023080 13.181296 6.899459 16.591331 -2.317001 -16.442923 -11.103624 -4.734807 -0.007438 -0.107729 -0.027623
18.269195 89.667813 13.216619 -23.504420 2.318744 -3.385849 -2.531931 6.679553 -0.221430 -1.095146 2.956219 -0.055760 -1.095146 2.956219 -0.055760 -0.820907 2.217273 -0.036509 1.742208 36.492241 1.234233 2.978680 31.573813 2.030595 5.386629 7.829002 9.693277 63.636463 30.715873 85.337539 45.401906 70.088757 -13.255274 -2.459882 25.042003 -57.604895 -18.974065 9.426685 -12.389802 -7.252803 34.531828 -41.623662 -100.685401 37.790489 -13.797004 -9.463975 14.977158 47.522980 -23.196573 -10.053274 2.723759 -2.039965 10.932195 -6.138558 -3.806130 -7.109968 8.609720 -0.021165 0.063060 -0.190551 -7.236315 -5.851732 13.248020 6.858091 16.643415 -2.338177 -16.494615 -11.126381 -4.820712 -0.035338 -0.160540 -0.036950
17.969807 89.641244 13.185710 -23.461250 2.255836 -3.359156 -2.452021 6.679426 -0.117101 -1.080888 2.973248 -0.018118 -1.080888 2.973248 -0.018118 -0.810395 2.229977 -0.008323 1.669785 36.479826 1.189154 2.854029 31.551619 1.956908 5.503277 7.706177 9.742822 63.781116 30.921385 85.366302 45.472268 70.081644 -13.252438 -2.492157 25.044419 -57.739162 -18.858512 9.334034 -12.449254 -6.991215 34.326233 -41.618128 -100.828146 37.902052 -14.113135 -9.506218 14.982005 47.500902 -22.068994 -9.891345 2.865302 -2.662686 11.016922 -6.370881 -4.182582 -7.082592 8.455376 0.023633 -0.151383 -0.066752 -7.089205 -5.779275 13.407624 6.755459 16.691612 -2.395176 -16.424162 -11.127834 -4.970030 -0.027025 -0.199593 -0.028265
17.666456 89.619121 13.172457 -23.343326 2.088463 -3.298467 -2.431796 6.766612 -0.077831 -1.061661 3.000705 0.022213 -1.061661 3.000705 0.022213 -0.796172 2.250498 0.021873 1.607944 36.474759 1.164363 2.746457 31.542741 1.918466 5.606077 7.616733 9.814069 64.027690 31.114176 85.451886 45.372000 70.058340 -13.428950 -2.541246 25.039975 -57.919611 -18.777056 9.300332 -12.486572 -6.676025 34.029419 -41.624936 -101.018441 38.059678 -14.524694 -9.554065 14.992369 47.470542 -20.866046 -9.790092 2.709954 -2.677772 11.379930 -6.403388 -4.821885 -7.157963 8.517183 -0.087321 -0.320669 -0.064215 -6.977230 -5.614855 13.529011 6.580056 16.752997 -2.441861 -16.390671 -11.119558 -5.120668 -0.031685 -0.262108 -0.028558
17.486973 89.596267 13.209622 -23.237282 1.910623 -3.189006 -2.382337 6.815203 -0.098894 -1.044630 3.035893 0.062379 -1.044630 3.035893 0.062379 -0.783599 2.276821 0.051967 1.553596 36.483659 1.158633 2.650723 31.559530 1.913523 5.691394 7.565727 9.881142 64.439890 31.289194 85.689611 44.824157 69.981310 -14.071406 -2.577673 25.042457 -58.068410 -18.729024 9.342051 -12.517857 -6.354306 33.702219 -41.654726 -101.225356 38.232698 -14.933661 -9.597762 15.018737 47.411976 -20.010871 -9.711453 2.393652 -2.616807 11.801629 -6.057648 -4.839877 -7.393709 8.422062 -0.462403 -0.411430 -0.199907 -6.877147 -5.474438 13.528847 6.364132 16.852400 -2.518283 -16.361542 -11.097273 -5.219329 0.073768 -0.328886 0.020231
17.168236 89.574928 13.158417 -23.070435 1.789051 -3.255360 -2.310329 6.816590 0.079365 -1.046810 3.068219 0.094939 -1.046810 3.068219 0.094939 -0.785397 2.301010 0.076447 1.502648 36.496227 1.165384 2.559949 31.582989 1.930491 5.763025 7.496166 9.938700 64.843611 31.485408 85.977657 44.145411 69.904029 -14.863737 -2.571342 25.066013 -58.033759 -18.698514 9.411099 -12.536149 -6.044904 33.435870 -41.617677 -101.449291 38.335352 -15.279938 -9.645695 15.043627 47.333135 -19.416183 -9.588947 2.334517 -3.314934 11.949542 -5.788475 -4.664264 -7.409636 7.986276 -0.238398 -0.459804 -0.073441 -6.965141 -5.378343 13.811488 6.210492 17.000235 -2.603851 -16.131979 -11.100256 -5.371591 0.037887 -0.371272 0.007254
